<?xml version="1.0" encoding="UTF-8"?>
<svg width="552px" height="178px" viewBox="0 0 552 178" version="1.1" xmlns="http://www.w3.org/2000/svg" xmlns:xlink="http://www.w3.org/1999/xlink">
    <title>soomeet-logo-white-color</title>
    <g id="soomeet-logo-white-color" stroke="none" stroke-width="1" fill="none" fill-rule="evenodd">
        <g id="soomeet-logo-dark-color" fill-rule="nonzero">
            <path d="M46.2019863,76.5778806 L35.8149407,86.8327973 C31.6261778,82.7066777 27.7972277,80.6436179 24.3280902,80.6436179 C22.7628223,80.5482389 21.2094115,80.9656315 19.9085041,81.8311353 C18.9206924,82.4903913 18.3291004,83.5917773 18.3300805,84.7697375 C18.3347713,85.6996199 18.6990977,86.5925311 19.3484183,87.2655367 C20.8511914,88.520898 22.5411983,89.53928 24.3586403,90.2846486 L30.4686672,93.3037605 C36.9452956,96.4637643 41.3920374,99.6807958 43.8088925,102.954855 C49.5829763,111.19892 48.3368058,122.385638 40.886263,129.190937 C36.5277771,133.115783 30.6825181,135.078286 23.3504859,135.078286 C13.5948097,135.098333 5.81131442,131.34457 0,123.816918 L10.3259454,112.746841 C12.2612012,114.987214 14.6027775,116.850748 17.2302757,118.241625 C19.3710013,119.489306 21.7850499,120.207427 24.2669899,120.334876 C26.1793893,120.42719 28.0661189,119.869599 29.6132634,118.754874 C30.8449237,117.934359 31.6026525,116.578987 31.649939,115.111812 C31.649939,112.56234 29.2127172,110.07325 24.3382736,107.644542 L18.6864988,104.846832 C7.87175125,99.4795216 2.46437749,92.7401929 2.46437749,84.6288456 C2.41840558,79.498095 4.65180451,74.6055731 8.57440434,71.2441162 C12.6477556,67.5406723 17.8582507,65.6884555 24.2058897,65.6884555 C32.8867913,65.6368538 41.0666405,69.7011697 46.2019863,76.6181354 L46.2019863,76.5778806 Z" id="Path" fill="#FFFFFF"></path>
            <path d="M87.9025866,65.6885587 C94.1000088,65.673611 100.191905,67.2825188 105.564187,70.3532026 C116.453801,76.4510693 123.16911,87.9291767 123.114847,100.351015 C123.139457,106.480129 121.526753,112.505969 118.441173,117.812878 C115.440521,123.116719 111.040831,127.50657 105.715919,130.509674 C100.318742,133.562237 94.2032919,135.137145 87.9936258,135.073684 C78.8136805,135.226124 69.9817594,131.585608 63.605242,125.020798 C56.9838338,118.574057 53.3252766,109.702402 53.489778,100.491755 C53.3994907,81.4843146 68.7577383,65.9651949 87.8823557,65.7389278 L87.9025866,65.6885587 Z M88.1757042,81.2505312 C83.2916289,81.1322517 78.5874713,83.0841516 75.2380257,86.6187725 C71.7987679,90.1975999 70.079139,94.7783651 70.079139,100.361068 C70.079139,106.097915 71.7650497,110.745699 75.136871,114.304421 C78.4841928,117.838713 83.1927232,119.781451 88.0745495,119.642504 C93.0013538,119.784136 97.7552146,117.83146 101.143729,114.274262 C104.603218,110.668627 106.336334,106.037598 106.343098,100.381174 C106.349821,94.7247497 104.663911,90.1238788 101.285346,86.5785609 C97.8824262,83.022274 93.1109426,81.0830443 88.1757042,81.2505312 Z" id="Shape" fill="#FFFFFF"></path>
            <path d="M164.607655,65.6885446 C170.806319,65.6746626 176.899416,67.2829714 182.274193,70.3518215 C193.153585,76.4536777 199.86159,87.9259482 199.809572,100.340935 C199.834201,106.468272 198.221969,112.492365 195.137293,117.797735 C192.14111,123.099336 187.746138,127.487981 182.42588,130.490849 C177.019634,133.554636 170.891472,135.136164 164.66833,135.073636 C155.493871,135.226876 146.667338,131.58706 140.297205,125.023664 C133.67469,118.58083 130.016643,109.710384 130.184705,100.501735 C130.094444,81.4998058 145.448191,65.9851861 164.567205,65.7589847 L164.607655,65.6885446 Z M164.880693,81.2459902 C159.989987,81.1223095 155.279425,83.0826603 151.936692,86.6327747 C148.491701,90.2105645 146.769205,94.7900013 146.769205,100.371085 C146.769205,106.106269 148.471476,110.752705 151.876017,114.310395 C155.216969,117.845349 159.921919,119.788135 164.799793,119.64693 C169.711534,119.772767 174.44474,117.813706 177.81458,114.260145 C181.279797,110.655556 183.012405,106.025869 183.012405,100.371085 C183.012405,94.7163015 181.316876,90.1167647 177.925818,86.5724749 C174.540366,83.0299338 169.7943,81.0920567 164.880693,81.2459902 L164.880693,81.2459902 Z" id="Shape" fill="#FFFFFF"></path>
            <path d="M436.897316,105.194131 L383.426184,105.194131 C384.014405,109.559131 386.219818,113.549047 389.611089,116.383533 C392.979774,119.149077 397.258003,120.531849 402.445778,120.531849 C408.454465,120.612027 414.239926,118.271393 418.484086,114.043201 L432.501183,120.592115 C429.322658,125.238456 425.002021,129.000252 419.949463,131.520364 C414.502596,134.002452 408.557253,135.215179 402.56705,135.066018 C392.157814,135.066018 383.682204,131.801605 377.140218,125.27278 C370.598232,118.743955 367.327239,110.574553 367.327239,100.764574 C367.327239,90.7202278 370.588126,82.3499389 377.1099,75.6537079 C383.631673,68.9574768 391.814209,65.6361462 401.657505,65.6890783 C412.093691,65.6890783 420.586145,69.0110466 427.134868,75.6537079 C433.683591,82.2963691 436.957952,91.075128 436.957952,101.989985 L436.897316,105.194131 Z M420.252645,92.1364807 C419.173771,88.4974493 416.877837,85.333241 413.744346,83.1668791 C410.454932,80.851717 406.506012,79.6443545 402.476096,79.7216682 C398.08466,79.6398427 393.789144,81.0029072 390.257876,83.598786 C388.068231,85.219274 386.04702,88.0651722 384.194244,92.1364807 L420.252645,92.1364807 Z" id="Shape" fill="#FFFFFF"></path>
            <path d="M513.592014,105.194131 L460.120882,105.194131 C460.709103,109.559131 462.914516,113.549047 466.305787,116.383533 C469.674472,119.149077 473.952702,120.531849 479.140476,120.531849 C485.150697,120.620113 490.939209,118.278244 495.178784,114.043201 L509.256517,120.592115 C506.062849,125.247775 501.720125,129.010623 496.644162,131.520364 C491.197294,134.002452 485.251952,135.215179 479.261749,135.066018 C468.85925,135.066018 460.387008,131.801605 453.845022,125.27278 C447.303037,118.743955 444.028675,110.574553 444.021938,100.764574 C444.021938,90.7202278 447.286193,82.3499389 453.814704,75.6537079 C460.343215,68.9574768 468.522382,65.6361462 478.352204,65.6890783 C488.801864,65.6890783 497.297687,69.0110466 503.839672,75.6537079 C510.381658,82.2963691 513.652651,91.075128 513.652651,101.989985 L513.592014,105.194131 Z M496.947343,92.1364807 C495.872168,88.4956488 493.575422,85.330321 490.439044,83.1668791 C487.149631,80.851717 483.200711,79.6443545 479.170794,79.7216682 C474.782242,79.6382856 470.489437,81.0016178 466.962681,83.598786 C464.759561,85.219274 462.73835,88.0651722 460.899048,92.1364807 L496.947343,92.1364807 Z" id="Shape" fill="#FFFFFF"></path>
            <polygon id="Path" fill="#FFFFFF" points="526.036952 42.558512 542.32691 42.558512 542.32691 66.674966 552 66.674966 552 80.8001753 542.32691 80.8001753 542.32691 132.061337 526.036952 132.061337 526.036952 80.8001753 517.689214 80.8001753 517.689214 66.674966 526.036952 66.674966"></polygon>
            <path d="M178.804658,160.305161 C191.493245,143.943357 203.266887,126.941091 214.668517,109.768702 C220.288898,101.122464 225.949495,92.5062476 231.268245,83.7499303 C233.922593,79.3667681 236.586996,74.9535842 239.070419,70.5804292 C240.307104,68.4689059 241.594061,66.0271443 242.991615,63.6754476 C243.695419,62.4845885 244.439441,61.3037366 245.263898,60.0528341 C246.237997,58.5475204 247.385247,57.1604805 248.682376,55.9198524 C249.311656,55.3458972 250.014941,54.8579241 250.77368,54.4688055 C251.057598,54.3223337 251.349644,54.19203 251.648409,54.078524 C252.052029,53.9361267 252.465296,53.8224258 252.885093,53.7382785 C254.0855,53.5057205 255.326073,53.5884976 256.48455,53.9784518 C257.091624,54.1716667 257.667356,54.4514416 258.193789,54.809051 C258.446541,54.9770997 258.688331,55.1609344 258.917702,55.3594481 C259.088626,55.5095564 259.25955,55.6696719 259.42042,55.8397946 C259.942595,56.3902423 260.385828,57.009881 260.737539,57.681123 C260.951743,58.1015794 261.136513,58.5362601 261.290528,58.9820616 C261.401126,59.3122999 261.521778,59.7125886 261.592159,59.9827836 C261.971233,61.7289412 262.163338,63.5101636 262.165256,65.2966172 C262.245691,68.2987831 262.084822,70.9607036 261.974224,73.6526457 C261.682648,79.0065082 261.260365,84.2102624 260.8783,89.4140167 C260.043789,99.8015107 259.229387,110.09894 258.093246,120.316311 L257.278843,127.941812 C257.037539,130.383574 256.796235,132.795314 256.655474,135.07696 C256.564985,136.217783 256.514713,137.318577 256.504659,138.329307 C256.480515,139.141237 256.514113,139.95385 256.605202,140.761061 C256.605202,140.991227 256.705746,141.071285 256.605202,140.650981 C256.433091,140.149105 256.19653,139.671473 255.901398,139.229956 C255.040003,137.927152 253.832228,136.887861 252.412539,136.22779 C250.677759,135.38701 248.71235,135.140727 246.822322,135.527285 C246.074257,135.676874 245.354795,135.943719 244.6908,136.317855 C244.06743,136.69813 244.157919,136.718144 244.268517,136.598058 C244.813734,136.056178 245.320992,135.47774 245.786724,134.866809 C246.410093,134.096253 247.07368,133.215617 247.727213,132.274939 C249.044333,130.413596 250.361452,128.38213 251.678572,126.270607 C254.302756,122.117611 256.856561,117.76447 259.360093,113.361293 C264.387267,104.55494 269.012267,95.348298 273.43618,86.1216414 C277.860093,76.8949848 282.123137,67.51822 286.38618,58.1514624 L292.730474,44.0813115 C294.741344,39.457976 296.963354,34.4243445 299.366344,29.6308863 C301.799355,24.6089593 304.567126,19.7546302 307.651126,15.1004033 C309.38285,12.5066167 311.322991,10.0568311 313.452485,7.77511845 C314.733346,6.41588951 316.136781,5.17647272 317.645148,4.07244717 C319.611828,2.61328716 321.830146,1.5245893 324.190528,0.860129648 C325.745437,0.457295303 327.350389,0.278679878 328.956289,0.329747004 C330.675315,0.390920453 332.373031,0.728872143 333.983463,1.33046897 C336.579304,2.36680014 338.901249,3.98283107 340.770148,6.05387667 C343.23809,8.84347321 345.210179,12.0314043 346.60167,15.4806776 C348.790173,20.8890773 350.47302,26.4867901 351.628844,32.2027417 C353.750015,42.7339664 355.307284,53.3699657 356.294061,64.0657292 C357.299496,74.5933243 358.194333,85.0808906 358.747322,95.5384351 L359.581833,111.259777 L360.235366,127.101206 C360.554242,132.116824 358.120283,136.911281 353.874371,139.631208 C349.62846,142.351135 344.235919,142.570326 339.781316,140.204049 C335.326714,137.837772 332.508074,133.256818 332.414985,128.232022 C332.384696,127.665347 332.384696,127.09747 332.414985,126.530795 L332.414985,126.240585 C334.184093,106.073802 334.758185,85.8208082 334.134278,65.5868266 C333.865174,55.694101 332.975306,45.8277754 331.469876,36.0455141 C330.802474,31.6157433 329.711655,27.2595152 328.212268,23.0361285 C327.719167,21.6645552 327.042803,20.3652924 326.201398,19.1733417 C326.02042,18.913154 326.110909,19.1733417 326.78455,19.3634789 C327.46155,19.6107707 328.198417,19.6456952 328.895963,19.4635511 C329.237811,19.3534716 329.006561,19.3534716 328.584278,19.6336738 C327.989269,20.0378156 327.433827,20.4968391 326.925311,21.0046629 C325.4743,22.4505571 324.15846,24.0248431 322.994061,25.7080561 C320.287492,29.6167366 317.842352,33.6984984 315.674496,37.9268714 C311.160094,46.5230731 307.037811,56.2600978 302.603844,65.5968338 C293.977213,84.4404285 284.817702,102.983807 275.859278,121.97751 C273.576941,126.710924 271.224224,131.444339 268.620148,136.197769 C267.323137,138.579487 265.955746,140.961205 264.387267,143.382952 C263.613083,144.593826 262.778572,145.824714 261.843517,147.095631 C260.776199,148.564413 259.58551,149.940344 258.284278,151.208598 C257.24308,152.238121 256.077993,153.13557 254.815528,153.880526 C253.600141,154.596163 252.275726,155.109925 250.894333,155.401623 C248.369273,155.939708 245.736393,155.633685 243.403843,154.530995 C241.407456,153.558026 239.719932,152.055032 238.527485,150.187862 C237.898188,149.194774 237.391798,148.12962 237.019332,147.015573 C236.613768,145.745964 236.340857,144.438105 236.20493,143.112758 C236.025674,141.354131 235.975269,139.584849 236.054115,137.818938 C236.104387,136.247805 236.214985,134.816772 236.355746,133.355718 C236.637267,130.503661 237.049496,127.791704 237.542159,125.129784 C238.034822,122.467863 238.477213,120.006087 239.000039,117.454246 C240.940528,107.266897 243.393789,97.2096408 245.565528,87.1824067 C246.661452,82.1787968 247.686996,77.175187 248.46118,72.2616421 C248.86043,69.9192911 249.135629,67.5576612 249.285637,65.1865378 C249.341633,64.3969497 249.341633,63.6044148 249.285637,62.8148267 C249.285637,62.8148267 249.285637,62.8748701 249.285637,62.8948845 C249.340109,63.0342057 249.407425,63.1682073 249.486724,63.2951733 C249.686523,63.6643175 249.940696,64.0016263 250.2408,64.2958953 C250.347403,64.4039609 250.461645,64.5042897 250.582648,64.5961118 C250.744495,64.7478758 250.919445,64.8851706 251.105474,65.0064079 C251.502859,65.2664419 251.931959,65.4749417 252.382376,65.6268555 C253.231748,65.9212512 254.144919,65.9834566 255.026669,65.8069854 C255.291901,65.7663748 255.551632,65.6958712 255.800854,65.5968338 C255.950173,65.5458994 256.094818,65.4822862 256.233191,65.4066966 C256.735909,65.1365017 256.725854,65.0864656 256.745963,65.0764584 C256.218316,65.6484742 255.750087,66.2720888 255.348409,66.9378013 C254.70493,67.8184366 254.081561,68.8291658 253.458191,69.8499022 C252.181289,71.9213967 251.075311,74.0529345 249.7783,76.4246455 C247.244604,81.0780027 244.640528,85.5512299 242.036452,90.0544787 L226.472322,116.953885 C216.206832,134.966881 206.051941,152.979876 196.671234,171.50324 C194.970388,174.871111 191.593542,177.080016 187.81272,177.29788 C184.031899,177.515744 180.4215,175.709469 178.341525,172.559461 C176.26155,169.409454 176.027997,165.394274 177.728843,162.026403 C178.010947,161.442535 178.347573,160.886355 178.734278,160.365204 L178.804658,160.305161 Z" id="Path" fill="#FF334F"></path>
        </g>
    </g>
</svg>