<svg xmlns="http://www.w3.org/2000/svg" viewBox="0 0 550.39 176.86"><defs><style>.cls-1{fill:#1f222c;}.cls-2{fill:#ff334f;}</style></defs><g id="Calque_2" data-name="Calque 2"><g id="Calque_1-2" data-name="Calque 1"><path class="cls-1" d="M45.37,76.38,35.17,86.57Q29,80.42,23.89,80.42a7,7,0,0,0-4.34,1.18A3.52,3.52,0,0,0,18,84.52,3.62,3.62,0,0,0,19,87a18.76,18.76,0,0,0,4.92,3l6,3q9.54,4.71,13.1,9.59a20,20,0,0,1-2.87,26.07q-6.42,5.85-17.22,5.85Q8.56,134.54,0,123.32l10.14-11a23.51,23.51,0,0,0,6.78,5.46,15.15,15.15,0,0,0,6.91,2.08,8.23,8.23,0,0,0,5.25-1.57,4.54,4.54,0,0,0,2-3.62q0-3.8-7.18-7.42l-5.55-2.78q-15.93-8-15.93-20.09a17.4,17.4,0,0,1,6-13.3q6-5.52,15.35-5.52a26.59,26.59,0,0,1,21.6,10.86Z"/><path class="cls-1" d="M87.91,65.52a34.85,34.85,0,0,1,17.46,4.64A34.08,34.08,0,0,1,122.72,100a34.44,34.44,0,0,1-4.62,17.37A33.27,33.27,0,0,1,105.52,130,34.7,34.7,0,0,1,88,134.54a32.75,32.75,0,0,1-24.11-10,33.33,33.33,0,0,1-10-24.4,34.41,34.41,0,0,1,34-34.57ZM88.18,81a17,17,0,0,0-12.79,5.34q-5.1,5.34-5.1,13.67,0,8.56,5,13.87a16.9,16.9,0,0,0,12.79,5.31A17.11,17.11,0,0,0,101,113.85q5.13-5.38,5.14-13.82t-5-13.73A17.08,17.08,0,0,0,88.18,81Z"/><path class="cls-1" d="M164.53,65.52A34.91,34.91,0,0,1,182,70.16,34.1,34.1,0,0,1,199.34,100a34.44,34.44,0,0,1-4.62,17.37A33.25,33.25,0,0,1,182.15,130a34.74,34.74,0,0,1-17.56,4.56,32.72,32.72,0,0,1-24.1-10,33.3,33.3,0,0,1-10-24.4,34.41,34.41,0,0,1,34-34.57ZM164.8,81A16.94,16.94,0,0,0,152,86.36q-5.11,5.34-5.11,13.67,0,8.56,5.05,13.87a16.86,16.86,0,0,0,12.78,5.31,17.08,17.08,0,0,0,12.87-5.36q5.14-5.38,5.14-13.82T177.7,86.3A17.05,17.05,0,0,0,164.8,81Z"/><path class="cls-1" d="M434.67,104.79H381.76a17.61,17.61,0,0,0,6.12,11.14q5,4.13,12.7,4.13a22,22,0,0,0,15.87-6.46l13.87,6.52A32.82,32.82,0,0,1,417.9,131a38.93,38.93,0,0,1-17.2,3.53q-15.45,0-25.16-9.75t-9.71-24.4q0-15,9.68-25t24.29-9.92q15.49,0,25.21,9.92t9.72,26.22Zm-16.47-13a16.59,16.59,0,0,0-6.44-8.93,18.67,18.67,0,0,0-11.15-3.43,19.71,19.71,0,0,0-12.09,3.86q-3.25,2.42-6,8.5Z"/><path class="cls-1" d="M511.29,104.79H458.38a17.61,17.61,0,0,0,6.12,11.14q5,4.13,12.7,4.13a21.93,21.93,0,0,0,15.87-6.46L507,120.12A32.77,32.77,0,0,1,494.52,131a38.93,38.93,0,0,1-17.2,3.53q-15.44,0-25.15-9.75t-9.72-24.4q0-15,9.69-25t24.28-9.92q15.51,0,25.22,9.92t9.71,26.22Zm-16.47-13a16.54,16.54,0,0,0-6.44-8.93,18.67,18.67,0,0,0-11.15-3.43,19.66,19.66,0,0,0-12.08,3.86q-3.27,2.42-6,8.5Z"/><path class="cls-1" d="M524.14,43h16.47V67.21h9.78V81.39h-9.78v51.46H524.14V81.39H515.7V67.21h8.44Z"/><path class="cls-2" d="M177.87,159.86c12.62-16.35,24.33-33.34,35.67-50.5,5.59-8.64,11.22-17.25,16.51-26,2.64-4.38,5.29-8.79,7.76-13.16,1.23-2.11,2.51-4.55,3.9-6.9.7-1.19,1.44-2.37,2.26-3.62a23,23,0,0,1,3.4-4.13,9.56,9.56,0,0,1,2.08-1.45,8.4,8.4,0,0,1,.87-.39,9,9,0,0,1,1.23-.34,7,7,0,0,1,3.58.24,6.56,6.56,0,0,1,1.7.83,7.15,7.15,0,0,1,.72.55c.17.15.34.31.5.48a8.21,8.21,0,0,1,1.31,1.84,10.23,10.23,0,0,1,.55,1.3c.11.33.23.73.3,1a25.27,25.27,0,0,1,.57,5.31c.08,3-.08,5.66-.19,8.35-.29,5.35-.71,10.55-1.09,15.75-.83,10.38-1.64,20.67-2.77,30.88l-.81,7.62c-.24,2.44-.48,4.85-.62,7.13-.09,1.14-.14,2.24-.15,3.25a17.21,17.21,0,0,0,.1,2.43c0,.23.1.31,0-.11a6.15,6.15,0,0,0-.7-1.42,8.42,8.42,0,0,0-3.47-3,8.7,8.7,0,0,0-5.56-.7,7.17,7.17,0,0,0-2.12.79c-.62.38-.53.4-.42.28a16.77,16.77,0,0,0,1.51-1.73c.62-.77,1.28-1.65,1.93-2.59,1.31-1.86,2.62-3.89,3.93-6,2.61-4.15,5.15-8.5,7.64-12.9,5-8.8,9.6-18,14-27.22s8.64-18.59,12.88-27.95l6.31-14.06c2-4.62,4.21-9.65,6.6-14.44a124.94,124.94,0,0,1,8.24-14.52,57.58,57.58,0,0,1,5.77-7.32,30.45,30.45,0,0,1,4.17-3.7A20,20,0,0,1,322.47.53,16.7,16.7,0,0,1,327.21,0a15.84,15.84,0,0,1,5,1,18.16,18.16,0,0,1,6.75,4.72,32.68,32.68,0,0,1,5.8,9.42,94.79,94.79,0,0,1,5,16.71,302.89,302.89,0,0,1,4.64,31.84c1,10.52,1.89,21,2.44,31.45l.83,15.71.65,15.83a13.85,13.85,0,1,1-27.67,1.13,16,16,0,0,1,0-1.7l0-.29a515.14,515.14,0,0,0,1.71-60.61,237.41,237.41,0,0,0-2.65-29.52,70.32,70.32,0,0,0-3.24-13,16.22,16.22,0,0,0-2-3.86c-.18-.26-.09,0,.58.19a3.51,3.51,0,0,0,2.1.1c.34-.11.11-.11-.31.17a11.41,11.41,0,0,0-1.65,1.37,33.67,33.67,0,0,0-3.91,4.7A108.1,108.1,0,0,0,314,37.57c-4.49,8.59-8.59,18.32-13,27.65-8.58,18.83-17.69,37.36-26.6,56.34-2.27,4.73-4.61,9.46-7.2,14.21-1.29,2.38-2.65,4.76-4.21,7.18-.77,1.21-1.6,2.44-2.53,3.71a32,32,0,0,1-3.54,4.11,17.71,17.71,0,0,1-3.45,2.67,12.93,12.93,0,0,1-3.9,1.52,11.67,11.67,0,0,1-7.45-.87,12,12,0,0,1-4.85-4.34,14.56,14.56,0,0,1-1.5-3.17,19.36,19.36,0,0,1-.81-3.9,36.4,36.4,0,0,1-.15-5.29c.05-1.57.16-3,.3-4.46.28-2.85.69-5.56,1.18-8.22s.93-5.12,1.45-7.67c1.93-10.18,4.37-20.23,6.53-30.25,1.09-5,2.11-10,2.88-14.91a67.71,67.71,0,0,0,.82-7.07,16.83,16.83,0,0,0,0-2.37s0,.06,0,.08a2.42,2.42,0,0,0,.2.4,4.2,4.2,0,0,0,.75,1,3.17,3.17,0,0,0,.34.3,3.77,3.77,0,0,0,.52.41,5.56,5.56,0,0,0,1.27.62,5,5,0,0,0,2.63.18,3.52,3.52,0,0,0,.77-.21,2.74,2.74,0,0,0,.43-.19c.5-.27.49-.32.51-.33A11.52,11.52,0,0,0,254,66.56c-.64.88-1.26,1.89-1.88,2.91-1.27,2.07-2.37,4.2-3.66,6.57-2.52,4.65-5.11,9.12-7.7,13.62l-15.48,26.88c-10.21,18-20.31,36-29.64,54.51a10.54,10.54,0,0,1-18.84-9.47,10.33,10.33,0,0,1,1-1.66Z"/></g></g></svg>